<?xml version="1.0" encoding="UTF-8" standalone="no"?>
<!-- Created with Inkscape (http://www.inkscape.org/) -->

<svg
   sodipodi:docname="spirographs6.svg"
   viewBox="0 0 500 500"
   height="500"
   width="500"
   id="svg299"
   version="1.1"
   inkscape:version="1.1.2 (08b2f3d93c, 2022-04-05)"
   xmlns:inkscape="http://www.inkscape.org/namespaces/inkscape"
   xmlns:sodipodi="http://sodipodi.sourceforge.net/DTD/sodipodi-0.dtd"
   xmlns="http://www.w3.org/2000/svg"
   xmlns:svg="http://www.w3.org/2000/svg">
  <defs
     id="defs303" />
  <sodipodi:namedview
     id="namedview301"
     pagecolor="#000000"
     bordercolor="#666666"
     borderopacity="1.0"
     inkscape:pageshadow="2"
     inkscape:pageopacity="0.0"
     inkscape:pagecheckerboard="0"
     showgrid="false"
     width="500px"
     inkscape:zoom="0.27709747"
     inkscape:cx="232.77008"
     inkscape:cy="297.72917"
     inkscape:window-width="1528"
     inkscape:window-height="836"
     inkscape:window-x="72"
     inkscape:window-y="27"
     inkscape:window-maximized="1"
     inkscape:current-layer="g305" />
  <g
     inkscape:groupmode="layer"
     inkscape:label="Image"
     id="g305"><g
   id="g1373"
   style="stroke-width:2;stroke-miterlimit:4;stroke-dasharray:none">
  <g
     id="spiral1"
     transform="rotate(23.912986,249.99224,249.98757)"
     transform-origin= "center"
     style="stroke-width:2;stroke-miterlimit:4;stroke-dasharray:none">
    <g
       id="g1277"
       style="stroke-width:2;stroke-miterlimit:4;stroke-dasharray:none">
      <path
         style="fill:none;stroke:#ff0000;stroke-width:2;stroke-opacity:1;stroke-miterlimit:4;stroke-dasharray:none"
         d="m 594.84398,250 c 0,27.07887 -27.16507,53.72668 -73.56383,65.12377 -46.39014,11.39712 -111.32426,6.9745 -176.32736,-16.75078 C 279.94973,274.64771 215.7656,231.76636 168.9703,180.78981 122.17496,129.81324 93.251197,71.517378 86.018077,24.290968 c -7.22449,-47.21776 7.00033,-82.52115 32.018773,-92.89234 25.02705,-10.36256 60.04594,4.54332 88.32317,43.04516 28.28582,38.50184 49.05406,100.18579 52.00246,169.318402 2.95706,69.13258 -12.10403,144.84308 -41.28645,207.57883 -29.19101,62.74436 -71.97757,111.78116 -112.84157,136.53236 -40.863993,24.7425 -78.917553,25.1133 -98.0736425,5.9658 -19.1474505,-19.1561 -18.7767505,-57.2096 5.9658195,-98.07363 24.75117,-40.864 73.78799,-83.65054 136.532333,-112.84156 62.73577,-29.18241 138.44627,-44.2435 207.57884,-41.28646 69.13259,2.9484 130.81657,23.71665 169.31843,52.00247 38.5018,28.28583 53.40769,63.30475 43.04513,88.32317 -10.37117,25.01841 -45.66599,39.24321 -92.89235,32.01881 -47.22638,-7.2245 -105.52225,-36.15692 -156.4988,-82.95226 C 268.23365,284.23439 225.35228,220.0503 201.62704,155.0472 177.90175,90.044108 173.47914,25.118588 184.87624,-21.280142 c 11.39707,-46.39014 38.0449,-73.56383 65.12378,-73.56383 27.08749,0 53.7353,27.17369 65.1324,73.56383 11.3971,46.39873 6.97448,111.32425 -16.75079,176.327342 -23.72528,65.0031 -66.60663,129.18719 -117.58316,175.98252 -50.97657,46.79534 -109.272443,75.72776 -156.498833,82.95226 -47.2264,7.2244 -82.52118,-7.0004 -92.89235,-32.01881 -10.36256,-25.01842 4.5433,-60.03734 43.045141,-88.32317 38.501829,-28.28582 100.185799,-49.05407 169.318392,-52.00247 69.13262,-2.95704 144.8431,12.10405 207.57884,41.28646 62.74435,29.19102 111.78116,71.97756 136.53235,112.84156 24.74256,40.86403 25.11326,78.91753 5.96581,98.07363 -19.15609,19.14749 -57.20961,18.7767 -98.07364,-5.96581 -40.864,-24.75119 -83.65051,-73.788 -112.84157,-136.53235 -29.18242,-62.73575 -44.24347,-138.44625 -41.28643,-207.57883 2.94841,-69.132613 23.71666,-130.816562 52.00248,-169.318403 28.27718,-38.50184 63.29611,-53.40772 88.32315,-43.04516 25.01844,10.37119 39.24324,45.67458 32.01873,92.89234 -7.23307,47.22641 -36.15688,105.522273 -82.95218,156.498843 -46.79533,50.97655 -110.9794,93.8579 -175.98252,117.58318 -65.003092,23.72528 -129.937212,28.1479 -176.327352,16.75078 -46.39873,-11.39709 -73.57247,-38.0449 -73.57247,-65.12377 0,-27.08749 27.17374,-53.7353 73.57247,-65.13243 46.39014,-11.39707 111.324259,-6.97446 176.327352,16.75082 65.00312,23.72529 129.18719,66.61523 175.98252,117.58316 46.7953,50.97656 75.71911,109.27242 82.95218,156.49882 7.22451,47.22641 -7.0003,82.52981 -32.01873,92.8923 -25.02705,10.3626 -60.04597,-4.5433 -88.32315,-43.0451 -28.28582,-38.5018 -49.05407,-100.1858 -52.00248,-169.31839 -2.95704,-69.13261 12.10401,-144.83447 41.28643,-207.57881 29.19106,-62.744383 71.97757,-111.781193 112.84157,-136.523763 40.86403,-24.75117 78.91755,-25.12188 98.07364,-5.9744195 19.14745,19.1560895 18.77675,57.2096195 -5.96581,98.0736425 -24.7512,40.86401 -73.788,83.65914 -136.53236,112.84157 -62.73573,29.18241 -138.44621,44.24349 -207.57883,41.28644 -69.132593,-2.94842 -130.816563,-23.71665 -169.318393,-52.00248 -38.50184,-28.27719 -53.4077,-63.29611 -43.04514,-88.32316 10.37117,-25.018423 45.66595,-39.243243 92.89235,-32.018763 47.22639,7.2331 105.522253,36.156873 156.498833,82.952233 50.97653,46.80393 93.85788,110.9794 117.58316,175.98249 23.72527,65.00311 28.14789,129.93721 16.75079,176.32731 -11.3971,46.3988 -38.04491,73.5725 -65.1324,73.5725 -27.07888,0 -53.72671,-27.1737 -65.12378,-73.5725 -11.3971,-46.3901 -6.97449,-111.3242 16.7508,-176.32731 23.72524,-65.00309 66.60661,-129.17856 117.58318,-175.98249 50.97655,-46.79536 109.27242,-75.719133 156.4988,-82.952233 47.22636,-7.22448 82.52118,7.00034 92.89235,32.018763 10.36256,25.02705 -4.54333,60.04597 -43.04513,88.32316 C 487.05438,234.63719 425.3704,255.40542 356.23781,258.35384 287.10524,261.31089 211.39474,246.24981 148.65897,217.0674 85.914627,187.88497 36.877807,145.08984 12.126637,104.22584 -12.615933,63.361808 -12.986633,25.308278 6.1608175,6.1521875 25.316907,-12.995272 63.370467,-12.624562 104.23446,12.126608 c 40.864,24.74257 83.65056,73.77938 112.84157,136.523762 29.18242,62.74434 44.24351,138.4462 41.28645,207.57882 -2.9484,69.13259 -23.71664,130.81659 -52.00246,169.31839 -28.27723,38.5018 -63.29613,53.4077 -88.32317,43.04509 C 93.018407,558.23018 78.793587,522.92678 86.018077,475.70037 93.251197,428.47397 122.17496,370.17812 168.9703,319.20155 215.7656,268.23362 279.94973,225.34368 344.95278,201.61839 409.95589,177.89311 474.89,173.4705 521.28014,184.86757 567.67891,196.2647 594.84398,222.91251 594.84398,250 Z"
         id="red" />
    </g>
    <g
       id="g1280"
       style="stroke-width:2;stroke-miterlimit:4;stroke-dasharray:none">
      <path
         style="fill:none;fill-opacity:1;stroke:#52ff00;stroke-width:2;stroke-opacity:1;stroke-miterlimit:4;stroke-dasharray:none"
         d="m 587.98391,181.58154 c 5.37296,26.54047 -15.96448,58.0485 -59.17936,78.42539 -43.20643,20.37521 -107.727,28.92468 -176.14519,18.56896 C 284.24119,268.22016 212.82475,238.92675 156.84516,198.24884 100.86552,157.57089 60.949843,106.17313 44.489923,61.3209 28.040177,16.475432 34.977308,-20.948505 57.440468,-36.077619 c 22.473317,-15.122365 59.753542,-7.461266 95.108042,24.664316 35.3629,32.123879 67.95748,88.460573 84.56448,155.633633 16.61548,67.1713 16.87624,144.36488 0.72202,211.64361 -16.16095,67.28889 -48.36696,123.84037 -83.50736,156.20763 -35.14213,32.35875 -72.365504,40.27272 -94.939956,25.30686 -22.56768,-14.97601 -29.754886,-52.34646 -13.612463,-97.30739 16.150868,-44.96262 55.723039,-96.62828 111.427799,-137.68857 55.69807,-41.05015 126.91482,-70.83418 195.2596,-81.65315 68.34302,-10.82743 132.92139,-2.71138 176.27021,17.37253 43.34873,20.08395 64.90668,51.44899 59.71424,78.02611 -5.20087,26.57882 -36.97143,47.52394 -84.69221,49.81378 -47.72089,2.28975 -110.59845,-14.5004 -169.84653,-50.25061 C 274.66024,279.94094 219.89613,225.54147 183.74477,166.53835 147.59336,107.53522 130.37623,44.778134 132.34034,-2.959464 c 1.96578,-47.729174 22.692,-79.650012 49.23247,-85.022972 26.54892,-5.374672 58.05867,15.971302 78.43385,59.17768 20.37688,43.214798 28.92465,107.726945 18.56895,176.145166 -10.35571,68.4182 -39.64912,139.83461 -80.32701,195.81423 -40.67794,55.97964 -92.07398,95.90381 -136.927906,112.35528 -44.853964,16.45137 -82.269458,9.51255 -97.398548,-12.95059 -15.120652,-22.46485 -7.459578,-59.74511 24.664297,-95.10803 32.123867,-35.36292 88.460588,-67.95751 155.633617,-84.5645 67.17134,-16.61547 144.36488,-16.87623 211.64361,-0.722 67.28884,16.16096 123.84041,48.36694 156.20758,83.50737 32.35886,35.14214 40.27272,72.36548 25.30695,94.93991 -14.976,22.56773 -52.34656,29.75486 -97.30745,13.6125 C 395.10813,438.07369 343.4425,398.50153 302.38217,342.79675 261.33202,287.0987 231.54802,215.88193 220.72905,147.53716 209.90162,79.194062 218.01768,14.615741 238.1016,-28.733021 c 20.07546,-43.347048 51.44051,-64.904978 78.02608,-59.714292 26.57886,5.200846 47.5257,36.97984 49.81374,84.6922608 C 368.22274,43.967553 351.44103,106.84337 315.69086,166.09147 279.94066,225.33955 225.54122,280.10363 166.53809,316.25504 107.53498,352.40644 44.769463,369.62529 -2.9597305,367.65946 -50.697327,365.69536 -82.61821,344.96917 -87.99117,318.4287 c -5.374672,-26.54892 15.971351,-58.05869 59.186142,-78.4356 43.206394,-20.37515 107.726978,-28.92463 176.145168,-18.56892 68.41823,10.35572 139.83631,39.65756 195.81423,80.32703 55.97961,40.67794 95.89533,92.07569 112.35524,136.92792 16.45147,44.85393 9.51435,82.27788 -12.95056,97.39848 C 420.08575,551.2 382.80548,543.5389 347.45104,511.41335 312.08813,479.2895 279.49353,422.95276 262.88653,355.77973 246.27106,288.60839 246.01198,211.42329 262.1645,144.13612 278.32549,76.847208 310.53147,20.295735 345.67358,-12.063075 c 35.1404,-32.36724 72.36384,-40.281134 94.93828,-25.315311 22.56763,14.976009 29.75485,52.346484 13.61239,97.307414 -16.15079,44.962602 -55.72134,96.636702 -111.42778,137.688572 -55.69804,41.05014 -126.91478,70.83416 -195.25958,81.65312 -68.343071,10.82742 -132.921417,2.71139 -176.270171,-17.37255 -43.34705,-20.07547 -64.904958,-51.44051 -59.714275,-78.02609 5.200834,-26.57882 36.971387,-47.52396 84.6922794,-49.81375 47.7225866,-2.28132 110.5983966,14.50037 169.8464966,50.25059 59.24976,35.75864 114.01214,90.14965 150.16354,149.15277 36.1514,59.00313 53.37024,121.76863 51.40442,169.49777 -1.96409,47.73767 -22.6903,79.65852 -49.23921,85.03319 -26.54047,5.37296 -58.05025,-15.97302 -78.42711,-59.18789 -20.37517,-43.20634 -28.92465,-107.72691 -18.56893,-176.14513 10.35566,-68.4182 39.6508,-139.82616 80.32703,-195.81422 40.67792,-55.97965 92.07571,-95.895353 136.92794,-112.355252 44.85385,-16.451422 82.26936,-9.512595 97.39848,12.950554 15.1224,22.473308 7.4613,59.753568 -24.66425,95.108018 -32.12394,35.36293 -88.46068,67.95751 -155.63367,84.56451 -67.17131,16.6155 -144.36487,16.87626 -211.64363,0.72204 C 76.84868,221.68274 20.295481,189.46833 -12.071772,154.32791 -44.430592,119.18576 -52.344462,81.962395 -37.378646,59.387963 -22.40264,36.820273 14.967868,29.633065 59.930468,45.783926 104.89137,61.926355 156.55705,101.4985 197.61734,157.20333 c 41.05185,55.70647 70.83417,126.91477 81.65313,195.25958 10.82744,68.34307 2.7114,132.92144 -17.37253,176.27016 -20.07551,43.34701 -51.44052,64.90495 -78.0261,59.71423 -26.57712,-5.19233 -47.52397,-36.97133 -49.81374,-84.69222 -2.2813,-47.7226 14.50036,-110.5984 50.25057,-169.8465 35.75188,-59.23962 90.14967,-114.01214 149.15275,-150.16355 59.00309,-36.1514 121.7686,-53.37023 169.49783,-51.40446 47.73769,1.96412 79.64999,22.69206 85.02466,49.24097 z"
         id="green" />
    </g>
    <g
       id="g1283"
       style="stroke-width:2;stroke-miterlimit:4;stroke-dasharray:none">
      <path
         style="fill:none;stroke:#faff00;stroke-width:2;stroke-opacity:1;stroke-miterlimit:4;stroke-dasharray:none"
         d="m 581.84877,156.24169 c 7.3628,26.05868 -11.5331,59.08874 -53.085,82.67236 -41.5436,23.5813 -105.2338,36.98099 -174.2388,31.82401 -69.005,-5.15699 -142.43053,-28.97102 -201.32343,-65.30331 C 94.3086,169.10245 50.62379,120.86729 30.82225,77.386837 c -19.7909,-43.47449 -15.70105,-81.31557 5.55489,-98.09858 21.26656,-16.77705 59.01904,-11.95444 96.69964,17.40821 37.68887,29.36033 74.44662,83.07341 96.08121,148.799793 21.64292,65.72399 27.73507,142.67723 16.71006,210.98416 -11.03095,68.31755 -38.87233,127.14066 -71.4669,162.07032 -32.5969,34.92135 -69.116,45.62492 -92.75661,32.40742 C 58.0099,537.73 48.01981,501.00933 60.71922,454.95734 73.4269,408.903 108.98252,354.39525 161.42589,309.24371 c 52.43746,-45.14092 121.20042,-80.22039 188.53248,-96.17203 67.3297,-15.95993 132.3366,-12.74611 177.0789,4.00532 44.7422,16.75146 68.6083,46.39811 65.4386,73.29157 -3.1779,26.89582 -33.2752,50.18142 -80.6866,56.07003 -47.4115,5.88861 -111.3779,-6.10298 -173.1576,-37.2747 C 276.85189,277.99219 218.13432,227.88575 177.62847,171.78257 137.12258,115.6794 115.21325,54.402467 113.56506,6.652917 c -1.64587,-47.74127 16.60943,-81.13678 42.66811,-88.49957 26.06697,-7.36513 59.09941,11.5392 82.68067,53.0827 23.58361,41.55177 36.98097,105.23373 31.824,174.238793 -5.15699,69.00505 -28.97102,142.43052 -65.30328,201.32345 -36.3323,58.89293 -84.56511,102.58603 -128.04789,122.37928 -43.4828,19.79323 -81.3155996,15.70105 -98.09859,-5.55488 -16.7747,-21.25826 -11.95213,-59.01078 17.4081904,-96.69965 C 26.05659,329.23418 79.7697,292.4764 145.49605,270.84181 c 65.72401,-21.6429 142.67722,-27.73504 210.98412,-16.71003 68.3176,11.03097 127.1407,38.87232 162.0703,71.4669 34.9214,32.5969 45.625,69.11597 32.4075,92.75657 -13.2281,23.63465 -49.9489,33.62474 -96.0008,20.92536 -46.0544,-12.70768 -100.5621,-48.26332 -145.7137,-100.7067 -45.14093,-52.43743 -80.22035,-121.20042 -96.17199,-188.53246 -15.95994,-67.329743 -12.7461,-132.336653 4.00532,-177.078903 16.74314,-44.73989 46.3898,-68.6059 73.29157,-65.43864 26.8958,3.17789 50.1837,33.28347 56.07,80.68667 5.8804,47.41383 -6.103,111.37784 -37.2747,173.157603 C 277.99196,223.14792 227.88555,281.86547 171.78236,322.37135 115.6792,362.87723 54.394,384.78892 6.6527104,386.43475 -41.09684,388.08293 -74.4924,369.82766 -81.85518,343.76899 c -7.36514,-26.06697 11.53925,-59.09941 53.09101,-82.68305 41.54351,-23.58124 105.23376,-36.98095 174.23879,-31.82396 69.00508,5.15698 142.43285,28.9793 201.32345,65.30328 58.8929,36.33232 102.5778,84.56746 122.3793,128.04789 19.7932,43.4828 15.7034,81.32387 -5.5549,98.09859 -21.2665,16.77704 -59.0191,11.95446 -96.6996,-17.40819 -37.6889,-29.36033 -74.4467,-83.07343 -96.08126,-148.79977 -21.64291,-65.72404 -27.73275,-142.66896 -16.71007,-210.98416 11.03099,-68.317603 38.87233,-127.140673 71.46923,-162.062043 32.5946,-34.92967 69.1137,-45.63325 92.7543,-32.41574 23.6346,13.22818 33.6247,49.94882 20.9253,96.00086 -12.7076,46.05432 -48.261,100.570373 -100.7067,145.713633 -52.4374,45.14092 -121.20035,80.22038 -188.53242,96.172 -67.32972,15.95994 -132.33666,12.74612 -177.0789,-4.00533 -44.7399,-16.74313 -68.60589,-46.38979 -65.43863,-73.29154 3.17788,-26.89581 33.27518,-50.18141 80.68668,-56.07006 47.41383,-5.88034 111.37783,6.103 173.15759,37.27473 61.78206,31.17999 120.49726,81.27815 161.00318,137.38132 40.5059,56.10317 62.4175,117.38837 64.0634,165.12964 1.6482,47.74957 -16.6071,81.14512 -42.6741,88.51025 -26.0587,7.36279 -59.0911,-11.54158 -82.6747,-53.09338 -23.58127,-41.54349 -36.98098,-105.23374 -31.82399,-174.23877 5.15694,-69.00506 28.97333,-142.42223 65.30329,-201.32344 36.3323,-58.892973 84.5675,-102.577793 128.0479,-122.379323 43.4827,-19.7932 81.3156,-15.70103 98.0986,5.55489 16.7771,21.26655 11.9544,59.01908 -17.4082,96.699633 -29.3604,37.68889 -83.0735,74.44666 -148.7998,96.08126 -65.724,21.64291 -142.67725,27.73506 -210.98419,16.71006 -68.31521,-11.0227 -127.14063,-38.87233 -162.0703,-71.46691 -34.92139,-32.59693 -45.62494,-69.11599 -32.40744,-92.756603 13.22816,-23.63466 49.9488504,-33.62474 96.00318,-20.91705 46.052,12.69939 100.55976,48.255003 145.7113,100.698423 45.14327,52.4457 80.22038,121.20037 96.17205,188.53245 15.9599,67.32969 12.7461,132.33664 -4.00536,177.07889 -16.74317,44.73989 -46.3898,68.60589 -73.29155,65.43862 -26.89347,-3.1696 -50.18142,-33.27518 -56.07005,-80.68669 -5.88032,-47.41382 6.10299,-111.37781 37.2747,-173.15757 31.17403,-61.77143 81.27818,-120.49727 137.38136,-161.00315 56.1031,-40.50587 117.3883,-62.41755 165.1296,-64.06344 47.7497,-1.64817 81.1368,16.60948 88.5019,42.67645 z"
         id="yellow" />
    </g>
    <g
       id="g1286"
       style="stroke-width:2;stroke-miterlimit:4;stroke-dasharray:none">
      <path
         style="fill:none;stroke:#005eff;stroke-width:2;stroke-opacity:1;stroke-miterlimit:4;stroke-dasharray:none"
         d="m 594.04892,273.40259 c -1.8377,27.01645 -30.7485,51.75928 -77.8138,59.98127 -47.0567,8.2226 -111.541,-0.59653 -174.7841,-28.67851 C 278.20792,276.62338 217.0819,229.48507 173.85398,175.45031 130.62601,121.41553 105.72514,61.291174 101.71369,13.68277 c -4.003427,-47.599187 12.58444,-81.855839 38.24904,-90.505257 25.6726,-8.640224 59.59918,8.607826 85.19831,48.939929 25.60768,40.332676 42.14188,103.283842 40.39188,172.457158 -1.7414,69.17388 -21.9058,143.68772 -55.27847,204.29839 C 176.89263,409.49167 130.87686,455.51177 88.427343,477.43266 45.978423,499.34494 7.9874327,497.13233 -9.8250673,476.729 -27.628357,456.31765 -24.676037,418.37699 2.7827027,379.28634 30.250033,340.19627 82.077483,300.83622 146.6582,275.97061 211.22978,251.113 287.78782,241.22468 356.56032,248.86654 c 68.7731,7.63324 128.9055,32.53976 165.399,63.37328 36.4935,30.83352 48.9885,66.78328 36.9519,91.04077 -12.0451,24.25693 -48.2239,36.05368 -94.8511,25.64087 -46.6272,-10.41283 -102.8253,-43.23472 -150.5085,-93.38167 C 265.86822,285.39285 227.44158,218.44661 208.18243,151.98328 188.92324,85.519934 188.91695,20.443974 203.4366,-25.07433 c 14.51903,-45.509745 42.94952,-70.812349 69.96602,-68.974658 27.025,1.838275 51.7673,30.757756 59.9898,77.814413 8.222,47.065219 -0.5965,111.540909 -28.6785,174.784045 -28.082,63.24313 -75.22025,124.36914 -129.25498,167.59709 -54.03479,43.22796 -114.159737,68.13743 -161.767537,72.14028 -47.60782,4.00284 -81.85586,-12.58444 -90.50526,-38.24903 -8.64081,-25.66399 8.60723,-59.5906 48.93989,-85.19832 40.33267,-25.6077 103.28386,-42.14193 172.457177,-40.39189 69.17391,1.74142 143.68771,21.90583 204.29841,55.27849 60.6186,33.38182 106.6387,79.39758 128.5596,121.84709 21.9124,42.44893 19.6997,80.43991 -0.7035,98.2524 -20.4114,17.8033 -58.3522,14.85095 -97.4428,-12.60776 -39.0901,-27.46731 -78.4501,-79.29478 -103.3157,-143.87552 -24.8577,-64.57156 -34.7459,-141.12962 -27.1041,-209.90214 7.6333,-68.773136 32.5398,-128.905453 63.3733,-165.398929 30.8249,-36.494073 66.7747,-48.98905 91.0408,-36.951936 24.2569,12.045142 36.0531,48.232509 25.6408,94.851129 -10.4214,46.62666 -43.2347,102.825226 -93.3816,150.508526 -50.147,47.68329 -117.09318,86.10997 -183.55654,105.36915 -66.463327,19.25919 -131.547887,19.26491 -177.057627,4.74582 -45.51829,-14.51964 -70.82095,-42.95014 -68.98326,-69.96658 1.83828,-27.02505 30.75781,-51.76729 77.82302,-59.98933 47.05665,-8.22255 111.54093,0.59658 174.784057,28.67855 63.24315,28.08199 124.36855,75.22886 167.59705,129.25503 43.228,54.03478 68.1289,114.15915 72.1403,161.76752 4.0029,47.60782 -12.585,81.86444 -38.249,90.50526 -25.6726,8.64022 -59.5992,-8.60781 -85.1983,-48.93989 -25.6077,-40.33268 -42.14194,-103.28385 -40.39191,-172.45716 1.74141,-69.17392 21.90521,-143.67914 55.27841,-204.29838 33.3819,-60.618696 79.3976,-106.638766 121.8466,-128.551076 42.4495,-21.92090086 80.4405,-19.7082719 98.253,0.69506 17.8033,20.41136 14.8509,58.352 -12.6078,97.442666 -27.4673,39.09007 -79.2954,78.45868 -143.8755,103.31572 -64.5716,24.85761 -141.12961,34.74593 -209.90216,27.10405 C 74.675643,243.4921 14.543293,218.5856 -21.950177,187.75208 c -36.49405,-30.8249 -48.98901,-66.77466 -36.95189,-91.040746 12.04512,-24.25692 48.22388,-36.05368 94.85112,-25.64088 46.62665,10.42142 102.825217,43.234726 150.508527,93.381686 47.68268,50.15552 86.10994,117.09315 105.36914,183.55649 19.2592,66.46334 19.2649,131.5479 4.7458,177.05762 -14.5196,45.51831 -42.9501,70.82096 -69.97517,68.98268 -27.01645,-1.83769 -51.75871,-30.75721 -59.98068,-77.82244 -8.22259,-47.05663 0.59654,-111.54091 28.67852,-174.78405 28.08194,-63.24314 75.21963,-124.36054 129.25503,-167.59707 54.0348,-43.22798 114.1592,-68.12886 161.7676,-72.1403 47.6077,-4.002816 81.8558,12.58445 90.5052,38.24904 8.6403,25.67259 -8.6078,59.5992 -48.9399,85.1983 -40.3327,25.60772 -103.2839,42.14192 -172.4572,40.3919 C 286.25202,263.80291 211.7382,243.6385 151.12751,210.26585 90.508273,176.89259 44.488773,130.86827 22.567863,88.418764 0.65555271,45.969794 2.8681827,7.9788411 23.271503,-9.8336559 43.682873,-27.636956 81.623543,-24.684619 120.7136,2.7826981 159.80425,30.241434 199.16431,82.068864 224.02991,146.64963 c 24.85701,64.58013 34.74591,141.12958 27.10401,209.90214 -7.6332,68.77312 -32.5397,128.90545 -63.37321,165.39893 -30.82494,36.49405 -66.77467,48.98901 -91.040777,36.95189 -24.2575,-12.03654 -36.05369,-48.22388 -25.64086,-94.85112 10.42143,-46.62663 43.234717,-102.82521 93.381667,-150.50852 50.14632,-47.67469 117.09318,-86.10994 183.55648,-105.36914 66.4633,-19.25919 131.5478,-19.26489 177.0577,-4.74585 45.5183,14.51968 70.8123,42.94959 68.974,69.97463 z"
         id="blue" />
    </g>
               <animateTransform attributeName="transform"
            type="rotate"
            from="0 0 0"
            to="-360 0 0"
            begin="0s"
            dur="300s"
            repeatCount="indefinite"
        />
  </g>

  <g
     id="spiral2"
     transform="rotate(38.47231,249.99992,250.00025)"
           transform-origin= "center"
     style="stroke-width:2;stroke-miterlimit:4;stroke-dasharray:none">
    <g
       id="g1339"
       style="stroke-width:2;stroke-miterlimit:4;stroke-dasharray:none">
      <path
         style="fill:none;stroke:#ff0000;stroke-width:2;stroke-opacity:1;stroke-miterlimit:4;stroke-dasharray:none"
         d="m 594.84398,250 c 0,27.07887 -27.16507,53.72668 -73.56383,65.12377 -46.39014,11.39712 -111.32426,6.9745 -176.32736,-16.75078 C 279.94973,274.64771 215.7656,231.76636 168.9703,180.78981 122.17496,129.81324 93.251197,71.517378 86.018077,24.290968 c -7.22449,-47.21776 7.00033,-82.52115 32.018773,-92.89234 25.02705,-10.36256 60.04594,4.54332 88.32317,43.04516 28.28582,38.50184 49.05406,100.18579 52.00246,169.318402 2.95706,69.13258 -12.10403,144.84308 -41.28645,207.57883 -29.19101,62.74436 -71.97757,111.78116 -112.84157,136.53236 -40.863993,24.7425 -78.917553,25.1133 -98.0736425,5.9658 -19.1474505,-19.1561 -18.7767505,-57.2096 5.9658195,-98.07363 24.75117,-40.864 73.78799,-83.65054 136.532333,-112.84156 62.73577,-29.18241 138.44627,-44.2435 207.57884,-41.28646 69.13259,2.9484 130.81657,23.71665 169.31843,52.00247 38.5018,28.28583 53.40769,63.30475 43.04513,88.32317 -10.37117,25.01841 -45.66599,39.24321 -92.89235,32.01881 -47.22638,-7.2245 -105.52225,-36.15692 -156.4988,-82.95226 C 268.23365,284.23439 225.35228,220.0503 201.62704,155.0472 177.90175,90.044108 173.47914,25.118588 184.87624,-21.280142 c 11.39707,-46.39014 38.0449,-73.56383 65.12378,-73.56383 27.08749,0 53.7353,27.17369 65.1324,73.56383 11.3971,46.39873 6.97448,111.32425 -16.75079,176.327342 -23.72528,65.0031 -66.60663,129.18719 -117.58316,175.98252 -50.97657,46.79534 -109.272443,75.72776 -156.498833,82.95226 -47.2264,7.2244 -82.52118,-7.0004 -92.89235,-32.01881 -10.36256,-25.01842 4.5433,-60.03734 43.045141,-88.32317 38.501829,-28.28582 100.185799,-49.05407 169.318392,-52.00247 69.13262,-2.95704 144.8431,12.10405 207.57884,41.28646 62.74435,29.19102 111.78116,71.97756 136.53235,112.84156 24.74256,40.86403 25.11326,78.91753 5.96581,98.07363 -19.15609,19.14749 -57.20961,18.7767 -98.07364,-5.96581 -40.864,-24.75119 -83.65051,-73.788 -112.84157,-136.53235 -29.18242,-62.73575 -44.24347,-138.44625 -41.28643,-207.57883 2.94841,-69.132613 23.71666,-130.816562 52.00248,-169.318403 28.27718,-38.50184 63.29611,-53.40772 88.32315,-43.04516 25.01844,10.37119 39.24324,45.67458 32.01873,92.89234 -7.23307,47.22641 -36.15688,105.522273 -82.95218,156.498843 -46.79533,50.97655 -110.9794,93.8579 -175.98252,117.58318 -65.003092,23.72528 -129.937212,28.1479 -176.327352,16.75078 -46.39873,-11.39709 -73.57247,-38.0449 -73.57247,-65.12377 0,-27.08749 27.17374,-53.7353 73.57247,-65.13243 46.39014,-11.39707 111.324259,-6.97446 176.327352,16.75082 65.00312,23.72529 129.18719,66.61523 175.98252,117.58316 46.7953,50.97656 75.71911,109.27242 82.95218,156.49882 7.22451,47.22641 -7.0003,82.52981 -32.01873,92.8923 -25.02705,10.3626 -60.04597,-4.5433 -88.32315,-43.0451 -28.28582,-38.5018 -49.05407,-100.1858 -52.00248,-169.31839 -2.95704,-69.13261 12.10401,-144.83447 41.28643,-207.57881 29.19106,-62.744383 71.97757,-111.781193 112.84157,-136.523763 40.86403,-24.75117 78.91755,-25.12188 98.07364,-5.9744195 19.14745,19.1560895 18.77675,57.2096195 -5.96581,98.0736425 -24.7512,40.86401 -73.788,83.65914 -136.53236,112.84157 -62.73573,29.18241 -138.44621,44.24349 -207.57883,41.28644 -69.132593,-2.94842 -130.816563,-23.71665 -169.318393,-52.00248 -38.50184,-28.27719 -53.4077,-63.29611 -43.04514,-88.32316 10.37117,-25.018423 45.66595,-39.243243 92.89235,-32.018763 47.22639,7.2331 105.522253,36.156873 156.498833,82.952233 50.97653,46.80393 93.85788,110.9794 117.58316,175.98249 23.72527,65.00311 28.14789,129.93721 16.75079,176.32731 -11.3971,46.3988 -38.04491,73.5725 -65.1324,73.5725 -27.07888,0 -53.72671,-27.1737 -65.12378,-73.5725 -11.3971,-46.3901 -6.97449,-111.3242 16.7508,-176.32731 23.72524,-65.00309 66.60661,-129.17856 117.58318,-175.98249 50.97655,-46.79536 109.27242,-75.719133 156.4988,-82.952233 47.22636,-7.22448 82.52118,7.00034 92.89235,32.018763 10.36256,25.02705 -4.54333,60.04597 -43.04513,88.32316 C 487.05438,234.63719 425.3704,255.40542 356.23781,258.35384 287.10524,261.31089 211.39474,246.24981 148.65897,217.0674 85.914627,187.88497 36.877807,145.08984 12.126637,104.22584 -12.615933,63.361808 -12.986633,25.308278 6.1608175,6.1521875 25.316907,-12.995272 63.370467,-12.624562 104.23446,12.126608 c 40.864,24.74257 83.65056,73.77938 112.84157,136.523762 29.18242,62.74434 44.24351,138.4462 41.28645,207.57882 -2.9484,69.13259 -23.71664,130.81659 -52.00246,169.31839 -28.27723,38.5018 -63.29613,53.4077 -88.32317,43.04509 C 93.018407,558.23018 78.793587,522.92678 86.018077,475.70037 93.251197,428.47397 122.17496,370.17812 168.9703,319.20155 215.7656,268.23362 279.94973,225.34368 344.95278,201.61839 409.95589,177.89311 474.89,173.4705 521.28014,184.86757 567.67891,196.2647 594.84398,222.91251 594.84398,250 Z"
         id="path1337" />
    </g>
    <g
       id="g1343"
       style="stroke-width:2;stroke-miterlimit:4;stroke-dasharray:none">
      <path
         style="fill:none;fill-opacity:1;stroke:#52ff00;stroke-width:2;stroke-opacity:1;stroke-miterlimit:4;stroke-dasharray:none"
         d="m 587.98391,181.58154 c 5.37296,26.54047 -15.96448,58.0485 -59.17936,78.42539 -43.20643,20.37521 -107.727,28.92468 -176.14519,18.56896 C 284.24119,268.22016 212.82475,238.92675 156.84516,198.24884 100.86552,157.57089 60.949843,106.17313 44.489923,61.3209 28.040177,16.475432 34.977308,-20.948505 57.440468,-36.077619 c 22.473317,-15.122365 59.753542,-7.461266 95.108042,24.664316 35.3629,32.123879 67.95748,88.460573 84.56448,155.633633 16.61548,67.1713 16.87624,144.36488 0.72202,211.64361 -16.16095,67.28889 -48.36696,123.84037 -83.50736,156.20763 -35.14213,32.35875 -72.365504,40.27272 -94.939956,25.30686 -22.56768,-14.97601 -29.754886,-52.34646 -13.612463,-97.30739 16.150868,-44.96262 55.723039,-96.62828 111.427799,-137.68857 55.69807,-41.05015 126.91482,-70.83418 195.2596,-81.65315 68.34302,-10.82743 132.92139,-2.71138 176.27021,17.37253 43.34873,20.08395 64.90668,51.44899 59.71424,78.02611 -5.20087,26.57882 -36.97143,47.52394 -84.69221,49.81378 -47.72089,2.28975 -110.59845,-14.5004 -169.84653,-50.25061 C 274.66024,279.94094 219.89613,225.54147 183.74477,166.53835 147.59336,107.53522 130.37623,44.778134 132.34034,-2.959464 c 1.96578,-47.729174 22.692,-79.650012 49.23247,-85.022972 26.54892,-5.374672 58.05867,15.971302 78.43385,59.17768 20.37688,43.214798 28.92465,107.726945 18.56895,176.145166 -10.35571,68.4182 -39.64912,139.83461 -80.32701,195.81423 -40.67794,55.97964 -92.07398,95.90381 -136.927906,112.35528 -44.853964,16.45137 -82.269458,9.51255 -97.398548,-12.95059 -15.120652,-22.46485 -7.459578,-59.74511 24.664297,-95.10803 32.123867,-35.36292 88.460588,-67.95751 155.633617,-84.5645 67.17134,-16.61547 144.36488,-16.87623 211.64361,-0.722 67.28884,16.16096 123.84041,48.36694 156.20758,83.50737 32.35886,35.14214 40.27272,72.36548 25.30695,94.93991 -14.976,22.56773 -52.34656,29.75486 -97.30745,13.6125 C 395.10813,438.07369 343.4425,398.50153 302.38217,342.79675 261.33202,287.0987 231.54802,215.88193 220.72905,147.53716 209.90162,79.194062 218.01768,14.615741 238.1016,-28.733021 c 20.07546,-43.347048 51.44051,-64.904978 78.02608,-59.714292 26.57886,5.200846 47.5257,36.97984 49.81374,84.6922608 C 368.22274,43.967553 351.44103,106.84337 315.69086,166.09147 279.94066,225.33955 225.54122,280.10363 166.53809,316.25504 107.53498,352.40644 44.769463,369.62529 -2.9597305,367.65946 -50.697327,365.69536 -82.61821,344.96917 -87.99117,318.4287 c -5.374672,-26.54892 15.971351,-58.05869 59.186142,-78.4356 43.206394,-20.37515 107.726978,-28.92463 176.145168,-18.56892 68.41823,10.35572 139.83631,39.65756 195.81423,80.32703 55.97961,40.67794 95.89533,92.07569 112.35524,136.92792 16.45147,44.85393 9.51435,82.27788 -12.95056,97.39848 C 420.08575,551.2 382.80548,543.5389 347.45104,511.41335 312.08813,479.2895 279.49353,422.95276 262.88653,355.77973 246.27106,288.60839 246.01198,211.42329 262.1645,144.13612 278.32549,76.847208 310.53147,20.295735 345.67358,-12.063075 c 35.1404,-32.36724 72.36384,-40.281134 94.93828,-25.315311 22.56763,14.976009 29.75485,52.346484 13.61239,97.307414 -16.15079,44.962602 -55.72134,96.636702 -111.42778,137.688572 -55.69804,41.05014 -126.91478,70.83416 -195.25958,81.65312 -68.343071,10.82742 -132.921417,2.71139 -176.270171,-17.37255 -43.34705,-20.07547 -64.904958,-51.44051 -59.714275,-78.02609 5.200834,-26.57882 36.971387,-47.52396 84.6922794,-49.81375 47.7225866,-2.28132 110.5983966,14.50037 169.8464966,50.25059 59.24976,35.75864 114.01214,90.14965 150.16354,149.15277 36.1514,59.00313 53.37024,121.76863 51.40442,169.49777 -1.96409,47.73767 -22.6903,79.65852 -49.23921,85.03319 -26.54047,5.37296 -58.05025,-15.97302 -78.42711,-59.18789 -20.37517,-43.20634 -28.92465,-107.72691 -18.56893,-176.14513 10.35566,-68.4182 39.6508,-139.82616 80.32703,-195.81422 40.67792,-55.97965 92.07571,-95.895353 136.92794,-112.355252 44.85385,-16.451422 82.26936,-9.512595 97.39848,12.950554 15.1224,22.473308 7.4613,59.753568 -24.66425,95.108018 -32.12394,35.36293 -88.46068,67.95751 -155.63367,84.56451 -67.17131,16.6155 -144.36487,16.87626 -211.64363,0.72204 C 76.84868,221.68274 20.295481,189.46833 -12.071772,154.32791 -44.430592,119.18576 -52.344462,81.962395 -37.378646,59.387963 -22.40264,36.820273 14.967868,29.633065 59.930468,45.783926 104.89137,61.926355 156.55705,101.4985 197.61734,157.20333 c 41.05185,55.70647 70.83417,126.91477 81.65313,195.25958 10.82744,68.34307 2.7114,132.92144 -17.37253,176.27016 -20.07551,43.34701 -51.44052,64.90495 -78.0261,59.71423 -26.57712,-5.19233 -47.52397,-36.97133 -49.81374,-84.69222 -2.2813,-47.7226 14.50036,-110.5984 50.25057,-169.8465 35.75188,-59.23962 90.14967,-114.01214 149.15275,-150.16355 59.00309,-36.1514 121.7686,-53.37023 169.49783,-51.40446 47.73769,1.96412 79.64999,22.69206 85.02466,49.24097 z"
         id="path1341" />
    </g>
    <g
       id="g1347"
       style="stroke-width:2;stroke-miterlimit:4;stroke-dasharray:none">
      <path
         style="fill:none;stroke:#faff00;stroke-width:2;stroke-opacity:1;stroke-miterlimit:4;stroke-dasharray:none"
         d="m 581.84877,156.24169 c 7.3628,26.05868 -11.5331,59.08874 -53.085,82.67236 -41.5436,23.5813 -105.2338,36.98099 -174.2388,31.82401 -69.005,-5.15699 -142.43053,-28.97102 -201.32343,-65.30331 C 94.3086,169.10245 50.62379,120.86729 30.82225,77.386837 c -19.7909,-43.47449 -15.70105,-81.31557 5.55489,-98.09858 21.26656,-16.77705 59.01904,-11.95444 96.69964,17.40821 37.68887,29.36033 74.44662,83.07341 96.08121,148.799793 21.64292,65.72399 27.73507,142.67723 16.71006,210.98416 -11.03095,68.31755 -38.87233,127.14066 -71.4669,162.07032 -32.5969,34.92135 -69.116,45.62492 -92.75661,32.40742 C 58.0099,537.73 48.01981,501.00933 60.71922,454.95734 73.4269,408.903 108.98252,354.39525 161.42589,309.24371 c 52.43746,-45.14092 121.20042,-80.22039 188.53248,-96.17203 67.3297,-15.95993 132.3366,-12.74611 177.0789,4.00532 44.7422,16.75146 68.6083,46.39811 65.4386,73.29157 -3.1779,26.89582 -33.2752,50.18142 -80.6866,56.07003 -47.4115,5.88861 -111.3779,-6.10298 -173.1576,-37.2747 C 276.85189,277.99219 218.13432,227.88575 177.62847,171.78257 137.12258,115.6794 115.21325,54.402467 113.56506,6.652917 c -1.64587,-47.74127 16.60943,-81.13678 42.66811,-88.49957 26.06697,-7.36513 59.09941,11.5392 82.68067,53.0827 23.58361,41.55177 36.98097,105.23373 31.824,174.238793 -5.15699,69.00505 -28.97102,142.43052 -65.30328,201.32345 -36.3323,58.89293 -84.56511,102.58603 -128.04789,122.37928 -43.4828,19.79323 -81.3155996,15.70105 -98.09859,-5.55488 -16.7747,-21.25826 -11.95213,-59.01078 17.4081904,-96.69965 C 26.05659,329.23418 79.7697,292.4764 145.49605,270.84181 c 65.72401,-21.6429 142.67722,-27.73504 210.98412,-16.71003 68.3176,11.03097 127.1407,38.87232 162.0703,71.4669 34.9214,32.5969 45.625,69.11597 32.4075,92.75657 -13.2281,23.63465 -49.9489,33.62474 -96.0008,20.92536 -46.0544,-12.70768 -100.5621,-48.26332 -145.7137,-100.7067 -45.14093,-52.43743 -80.22035,-121.20042 -96.17199,-188.53246 -15.95994,-67.329743 -12.7461,-132.336653 4.00532,-177.078903 16.74314,-44.73989 46.3898,-68.6059 73.29157,-65.43864 26.8958,3.17789 50.1837,33.28347 56.07,80.68667 5.8804,47.41383 -6.103,111.37784 -37.2747,173.157603 C 277.99196,223.14792 227.88555,281.86547 171.78236,322.37135 115.6792,362.87723 54.394,384.78892 6.6527104,386.43475 -41.09684,388.08293 -74.4924,369.82766 -81.85518,343.76899 c -7.36514,-26.06697 11.53925,-59.09941 53.09101,-82.68305 41.54351,-23.58124 105.23376,-36.98095 174.23879,-31.82396 69.00508,5.15698 142.43285,28.9793 201.32345,65.30328 58.8929,36.33232 102.5778,84.56746 122.3793,128.04789 19.7932,43.4828 15.7034,81.32387 -5.5549,98.09859 -21.2665,16.77704 -59.0191,11.95446 -96.6996,-17.40819 -37.6889,-29.36033 -74.4467,-83.07343 -96.08126,-148.79977 -21.64291,-65.72404 -27.73275,-142.66896 -16.71007,-210.98416 11.03099,-68.317603 38.87233,-127.140673 71.46923,-162.062043 32.5946,-34.92967 69.1137,-45.63325 92.7543,-32.41574 23.6346,13.22818 33.6247,49.94882 20.9253,96.00086 -12.7076,46.05432 -48.261,100.570373 -100.7067,145.713633 -52.4374,45.14092 -121.20035,80.22038 -188.53242,96.172 -67.32972,15.95994 -132.33666,12.74612 -177.0789,-4.00533 -44.7399,-16.74313 -68.60589,-46.38979 -65.43863,-73.29154 3.17788,-26.89581 33.27518,-50.18141 80.68668,-56.07006 47.41383,-5.88034 111.37783,6.103 173.15759,37.27473 61.78206,31.17999 120.49726,81.27815 161.00318,137.38132 40.5059,56.10317 62.4175,117.38837 64.0634,165.12964 1.6482,47.74957 -16.6071,81.14512 -42.6741,88.51025 -26.0587,7.36279 -59.0911,-11.54158 -82.6747,-53.09338 -23.58127,-41.54349 -36.98098,-105.23374 -31.82399,-174.23877 5.15694,-69.00506 28.97333,-142.42223 65.30329,-201.32344 36.3323,-58.892973 84.5675,-102.577793 128.0479,-122.379323 43.4827,-19.7932 81.3156,-15.70103 98.0986,5.55489 16.7771,21.26655 11.9544,59.01908 -17.4082,96.699633 -29.3604,37.68889 -83.0735,74.44666 -148.7998,96.08126 -65.724,21.64291 -142.67725,27.73506 -210.98419,16.71006 -68.31521,-11.0227 -127.14063,-38.87233 -162.0703,-71.46691 -34.92139,-32.59693 -45.62494,-69.11599 -32.40744,-92.756603 13.22816,-23.63466 49.9488504,-33.62474 96.00318,-20.91705 46.052,12.69939 100.55976,48.255003 145.7113,100.698423 45.14327,52.4457 80.22038,121.20037 96.17205,188.53245 15.9599,67.32969 12.7461,132.33664 -4.00536,177.07889 -16.74317,44.73989 -46.3898,68.60589 -73.29155,65.43862 -26.89347,-3.1696 -50.18142,-33.27518 -56.07005,-80.68669 -5.88032,-47.41382 6.10299,-111.37781 37.2747,-173.15757 31.17403,-61.77143 81.27818,-120.49727 137.38136,-161.00315 56.1031,-40.50587 117.3883,-62.41755 165.1296,-64.06344 47.7497,-1.64817 81.1368,16.60948 88.5019,42.67645 z"
         id="path1345" />
    </g>
    <g
       id="g1351"
       style="stroke-width:2;stroke-miterlimit:4;stroke-dasharray:none">
      <path
         style="fill:none;stroke:#005eff;stroke-width:2;stroke-opacity:1;stroke-miterlimit:4;stroke-dasharray:none"
         d="m 594.04892,273.40259 c -1.8377,27.01645 -30.7485,51.75928 -77.8138,59.98127 -47.0567,8.2226 -111.541,-0.59653 -174.7841,-28.67851 C 278.20792,276.62338 217.0819,229.48507 173.85398,175.45031 130.62601,121.41553 105.72514,61.291174 101.71369,13.68277 c -4.003427,-47.599187 12.58444,-81.855839 38.24904,-90.505257 25.6726,-8.640224 59.59918,8.607826 85.19831,48.939929 25.60768,40.332676 42.14188,103.283842 40.39188,172.457158 -1.7414,69.17388 -21.9058,143.68772 -55.27847,204.29839 C 176.89263,409.49167 130.87686,455.51177 88.427343,477.43266 45.978423,499.34494 7.9874327,497.13233 -9.8250673,476.729 -27.628357,456.31765 -24.676037,418.37699 2.7827027,379.28634 30.250033,340.19627 82.077483,300.83622 146.6582,275.97061 211.22978,251.113 287.78782,241.22468 356.56032,248.86654 c 68.7731,7.63324 128.9055,32.53976 165.399,63.37328 36.4935,30.83352 48.9885,66.78328 36.9519,91.04077 -12.0451,24.25693 -48.2239,36.05368 -94.8511,25.64087 -46.6272,-10.41283 -102.8253,-43.23472 -150.5085,-93.38167 C 265.86822,285.39285 227.44158,218.44661 208.18243,151.98328 188.92324,85.519934 188.91695,20.443974 203.4366,-25.07433 c 14.51903,-45.509745 42.94952,-70.812349 69.96602,-68.974658 27.025,1.838275 51.7673,30.757756 59.9898,77.814413 8.222,47.065219 -0.5965,111.540909 -28.6785,174.784045 -28.082,63.24313 -75.22025,124.36914 -129.25498,167.59709 -54.03479,43.22796 -114.159737,68.13743 -161.767537,72.14028 -47.60782,4.00284 -81.85586,-12.58444 -90.50526,-38.24903 -8.64081,-25.66399 8.60723,-59.5906 48.93989,-85.19832 40.33267,-25.6077 103.28386,-42.14193 172.457177,-40.39189 69.17391,1.74142 143.68771,21.90583 204.29841,55.27849 60.6186,33.38182 106.6387,79.39758 128.5596,121.84709 21.9124,42.44893 19.6997,80.43991 -0.7035,98.2524 -20.4114,17.8033 -58.3522,14.85095 -97.4428,-12.60776 -39.0901,-27.46731 -78.4501,-79.29478 -103.3157,-143.87552 -24.8577,-64.57156 -34.7459,-141.12962 -27.1041,-209.90214 7.6333,-68.773136 32.5398,-128.905453 63.3733,-165.398929 30.8249,-36.494073 66.7747,-48.98905 91.0408,-36.951936 24.2569,12.045142 36.0531,48.232509 25.6408,94.851129 -10.4214,46.62666 -43.2347,102.825226 -93.3816,150.508526 -50.147,47.68329 -117.09318,86.10997 -183.55654,105.36915 -66.463327,19.25919 -131.547887,19.26491 -177.057627,4.74582 -45.51829,-14.51964 -70.82095,-42.95014 -68.98326,-69.96658 1.83828,-27.02505 30.75781,-51.76729 77.82302,-59.98933 47.05665,-8.22255 111.54093,0.59658 174.784057,28.67855 63.24315,28.08199 124.36855,75.22886 167.59705,129.25503 43.228,54.03478 68.1289,114.15915 72.1403,161.76752 4.0029,47.60782 -12.585,81.86444 -38.249,90.50526 -25.6726,8.64022 -59.5992,-8.60781 -85.1983,-48.93989 -25.6077,-40.33268 -42.14194,-103.28385 -40.39191,-172.45716 1.74141,-69.17392 21.90521,-143.67914 55.27841,-204.29838 33.3819,-60.618696 79.3976,-106.638766 121.8466,-128.551076 42.4495,-21.92090086 80.4405,-19.7082719 98.253,0.69506 17.8033,20.41136 14.8509,58.352 -12.6078,97.442666 -27.4673,39.09007 -79.2954,78.45868 -143.8755,103.31572 -64.5716,24.85761 -141.12961,34.74593 -209.90216,27.10405 C 74.675643,243.4921 14.543293,218.5856 -21.950177,187.75208 c -36.49405,-30.8249 -48.98901,-66.77466 -36.95189,-91.040746 12.04512,-24.25692 48.22388,-36.05368 94.85112,-25.64088 46.62665,10.42142 102.825217,43.234726 150.508527,93.381686 47.68268,50.15552 86.10994,117.09315 105.36914,183.55649 19.2592,66.46334 19.2649,131.5479 4.7458,177.05762 -14.5196,45.51831 -42.9501,70.82096 -69.97517,68.98268 -27.01645,-1.83769 -51.75871,-30.75721 -59.98068,-77.82244 -8.22259,-47.05663 0.59654,-111.54091 28.67852,-174.78405 28.08194,-63.24314 75.21963,-124.36054 129.25503,-167.59707 54.0348,-43.22798 114.1592,-68.12886 161.7676,-72.1403 47.6077,-4.002816 81.8558,12.58445 90.5052,38.24904 8.6403,25.67259 -8.6078,59.5992 -48.9399,85.1983 -40.3327,25.60772 -103.2839,42.14192 -172.4572,40.3919 C 286.25202,263.80291 211.7382,243.6385 151.12751,210.26585 90.508273,176.89259 44.488773,130.86827 22.567863,88.418764 0.65555271,45.969794 2.8681827,7.9788411 23.271503,-9.8336559 43.682873,-27.636956 81.623543,-24.684619 120.7136,2.7826981 159.80425,30.241434 199.16431,82.068864 224.02991,146.64963 c 24.85701,64.58013 34.74591,141.12958 27.10401,209.90214 -7.6332,68.77312 -32.5397,128.90545 -63.37321,165.39893 -30.82494,36.49405 -66.77467,48.98901 -91.040777,36.95189 -24.2575,-12.03654 -36.05369,-48.22388 -25.64086,-94.85112 10.42143,-46.62663 43.234717,-102.82521 93.381667,-150.50852 50.14632,-47.67469 117.09318,-86.10994 183.55648,-105.36914 66.4633,-19.25919 131.5478,-19.26489 177.0577,-4.74585 45.5183,14.51968 70.8123,42.94959 68.974,69.97463 z"
         id="path1349" />
    </g>
          <animateTransform attributeName="transform"
            type="rotate"
            from="0 0 0"
            to="360 0 0"
            begin="0s"
            dur="300s"
            repeatCount="indefinite"
        />
  </g>
</g>
</g>
</svg>
